<svg xmlns="http://www.w3.org/2000/svg" viewBox="0 0 265.2 199.64"><defs><style>.cls-1{fill:#f0e8d7;}.cls-2{fill:#383838;}.cls-3{fill:#1a4531;}</style></defs><g id="Layer_2" data-name="Layer 2"><g id="Layer_1-2" data-name="Layer 1"><path className="cls-1" d="M28.35,120.71a9.53,9.53,0,0,0,2.45-.33h21v-.88a9.31,9.31,0,0,0,4.71,1.3,9,9,0,0,0,4.74-1.28v.86H82.54a10.94,10.94,0,0,0,3.23.51c5,0,8.88-3.44,8.88-7.83a6.37,6.37,0,0,0-.74-3.08l.06-8-1.54-.86a10.32,10.32,0,0,0-5.1-1.35,8.71,8.71,0,0,0-7.28,3.43,6.33,6.33,0,0,0-6-3.4,7.74,7.74,0,0,0-2.51.43l0-.43H68l-5.38,2a7.91,7.91,0,0,0-5.54-2.06A9.58,9.58,0,0,0,49.35,104,6.28,6.28,0,0,0,43,99.8a7.26,7.26,0,0,0-2.1.31V90.78L30.36,94.46v1.89h-4.9l-2.3,4.23-3.18.94v2.16L16.21,93.4l-3.74.77-2.57.56L3,113.6,0,114.36v6H26.12A7.79,7.79,0,0,0,28.35,120.71Zm43.59-12.78.2-.09V114H72.1l-.16,0Zm-12.13,3.63a3.38,3.38,0,0,1-1.94.93,1.7,1.7,0,0,1-1.58-.93Zm-28.88-3.81h1.2v4l-1.2,1.16Zm10,.19.21-.09V114h-.05l-.16,0Zm-8.79-7.75h-1.2V99.12l1.2.67ZM13,114.21l-2.4-.48.08-.22h3.15L14,114Zm9.18-6.55,0,2-.71-2Z"/><path className="cls-1" d="M263.09,90.78l-10.55,3.68V98.8l1.76,1v3.33c-1.14-2.14-3.35-3.32-6.44-3.32a10.28,10.28,0,0,0-7.6,3.24,6.36,6.36,0,0,0-5.93-3.24,7.64,7.64,0,0,0-2.51.43l0-.43h-3.53L222.45,102a10.43,10.43,0,0,0-6.66-2.22,9.93,9.93,0,0,0-7.53,3.54V98.91a4.84,4.84,0,0,0,.3-1.66,4.92,4.92,0,0,0-9.84,0,4.81,4.81,0,0,0,1,2.94H198V96.35h-5.48l-2.3,4.23-2.27.67A7.79,7.79,0,0,0,183,99.8a10.3,10.3,0,0,0-7.6,3.24,6.35,6.35,0,0,0-5.93-3.24,7.64,7.64,0,0,0-2.51.43l0-.43h-3.53l-3,1.12a4.68,4.68,0,0,0-3.13-1.18,6,6,0,0,0-1.15.11v0h-3.62l-5.39,2a7.87,7.87,0,0,0-5.53-2.06,8.92,8.92,0,0,0-5,1.6v-1.15h-4.14V96.35h-5.48l-2.3,4.23-2.13.63a7,7,0,0,0-4.46-1.41,7.64,7.64,0,0,0-2.51.43l0-.43H112l-4.8,1.78v-.51l2.31-.63v-6H95.7v6l2.31.63v12.67l-2.31.54v6.1h31.14v-.3a7,7,0,0,0,3,.63,9.8,9.8,0,0,0,5.63-1.83,9.17,9.17,0,0,0,5.62,1.92,9,9,0,0,0,4.74-1.28v.86h32a7.1,7.1,0,0,0,6-.48,5.39,5.39,0,0,0,3,.84,10.26,10.26,0,0,0,4.39-1.37,6.32,6.32,0,0,0,4.13,1.34,9.58,9.58,0,0,0,2.45-.33h12.49v-1a10.43,10.43,0,0,0,5.46,1.5,9.64,9.64,0,0,0,5.79-2v1.47H242.7a7.1,7.1,0,0,0,6-.48,5.39,5.39,0,0,0,3,.84,6.91,6.91,0,0,0,2.06-.36H265.2v-5.92l-2.11-.6ZM116.16,114h0l-.16,0v-6l.2-.09V114Zm26.25-1.47a1.7,1.7,0,0,1-1.58-.93h3.52A3.35,3.35,0,0,1,142.41,112.49Zm14.07,1.31v-5.06l1.67.65.43-.28V114l-.68.22Zm11.13.16h-.06l-.15,0v-6l.2-.09V114ZM198,112.84v-5.09h1.47v3.62Zm18.27,1c-.63,0-1.59-1.93-1.59-4.5a4.38,4.38,0,0,1,.55-2.6h.11c.57,0,1.59,1.49,1.59,4.47A4.12,4.12,0,0,1,216.24,113.84Zm16.2.12h-.06l-.15,0v-6l.2-.09a.19.19,0,0,0,0,.08Z"/><path className="cls-2" d="M3,116.69l2.22-.57,6.93-18.81,1-.21,1.17-.24,7.08,19.29,2.19.54v.69h-8v-.69l2.37-.54-2-5.64H8.55L6.6,116l3.48.69v.69H3ZM9.06,109h6.36l-3.18-8.88h0Z"/><path className="cls-2" d="M25.11,114.2l.09-9.54H23v-.9l2.22-.66,2-3.75h.69v3.84h4.14v1.56H27.93v9.45c.21,1.5,1,1.92,2.31,1.92a5.66,5.66,0,0,0,2.07-.42l.18.57a7,7,0,0,1-4.14,1.44C25.86,117.71,25.08,116.36,25.11,114.2Z"/><path className="cls-2" d="M42.33,116.72l1.8-.6v-8.31c-.09-1.74-.78-3-2.76-3a6.38,6.38,0,0,0-3.45,1.56v9.78l1.89.6v.66H33.3v-.66l1.83-.6V98l-1.77-1v-.45L37.92,95v10.53c.63-.66,2.73-2.73,5.1-2.73,2.61,0,3.93,1.23,3.93,5v8.31l1.89.63v.63H42.33Z"/><path className="cls-2" d="M50.22,110.6c0-4.35,3.27-7.86,6.84-7.86,3.06,0,5,1.89,5.46,5.82H52.86a6.27,6.27,0,0,0,0,.75c0,3.84,2,6.18,5,6.18a6.59,6.59,0,0,0,4.38-2.1l.48.36c-1,1.68-2.76,4-6.18,4C52.38,117.8,50.22,114.23,50.22,110.6ZM53,107.66h6.3c-.33-2.43-1.26-3.84-3-3.84S53.31,105.26,53,107.66Z"/><path className="cls-2" d="M64.29,116.72l1.83-.6V105.8l-1.89-1v-.39l4.29-1.59h.15l.15,2.76h.06c.6-.63,2.76-2.76,5.16-2.76,2.58,0,3.93,1.23,3.93,5v8.31l1.86.63v.63H73.35v-.66l1.8-.6v-8.31c-.12-1.74-.81-3-2.76-3a6.07,6.07,0,0,0-3.45,1.56v9.78l1.89.6v.66H64.29Z"/><path className="cls-2" d="M81.81,116.84l-.18-4.35h.6l1.5,3.54a3.06,3.06,0,0,0,2.25.9,2.69,2.69,0,0,0,2.91-2.67c0-1.23-.6-1.89-2.28-2.58l-2-.84c-1.68-.69-2.79-1.71-2.79-3.75,0-2.61,2.49-4.32,5.52-4.32a7.38,7.38,0,0,1,3.63,1l0,3.75h-.57l-1.35-3a3.4,3.4,0,0,0-2-.75A2.34,2.34,0,0,0,84.48,106c0,1.35.78,2,2.37,2.58l1.32.54c2.52,1,3.48,2.1,3.48,3.9,0,2.88-2.82,4.83-5.88,4.83A8.66,8.66,0,0,1,81.81,116.84Z"/><path className="cls-2" d="M98.7,116.66l2.31-.54V98.78l-2.31-.63v-.69h7.8v.69l-2.31.63v17.34l2.31.57v.69H98.7Z"/><path className="cls-2" d="M108.3,116.72l1.83-.6V105.8l-1.89-1v-.39l4.29-1.59h.15l.15,2.76h.06c.6-.63,2.76-2.76,5.16-2.76,2.58,0,3.93,1.23,3.93,5v8.31l1.86.63v.63h-6.48v-.66l1.8-.6v-8.31c-.12-1.74-.81-3-2.76-3a6.07,6.07,0,0,0-3.45,1.56v9.78l1.89.6v.66H108.3Z"/><path className="cls-2" d="M126.6,114.2l.09-9.54h-2.22v-.9l2.22-.66,2-3.75h.69v3.84h4.14v1.56h-4.14v9.45c.21,1.5,1,1.92,2.31,1.92a5.66,5.66,0,0,0,2.07-.42l.18.57a7,7,0,0,1-4.14,1.44C127.35,117.71,126.57,116.36,126.6,114.2Z"/><path className="cls-2" d="M134.76,110.6c0-4.35,3.27-7.86,6.84-7.86,3.06,0,5,1.89,5.46,5.82H137.4a6.27,6.27,0,0,0,0,.75c0,3.84,2,6.18,5,6.18a6.59,6.59,0,0,0,4.38-2.1l.48.36c-1,1.68-2.76,4-6.18,4C136.92,117.8,134.76,114.23,134.76,110.6Zm2.73-2.94h6.3c-.33-2.43-1.26-3.84-3-3.84S137.85,105.26,137.49,107.66Z"/><path className="cls-2" d="M148.83,116.72l1.83-.6V105.8l-1.89-1v-.39l4.29-1.59h.15l.09,3.87h.12l.36-.63c1.5-2.73,2.31-3.3,3.51-3.3a1.5,1.5,0,0,1,1.62,1.5,2,2,0,0,1-1.11,1.8l-2-.78a4.82,4.82,0,0,0-2.31,2.76v8.1l2.31.6v.66h-7Z"/><path className="cls-2" d="M159.75,116.72l1.83-.6V105.8l-1.89-1v-.39L164,102.8h.15l.15,2.76h.06c.6-.63,2.76-2.76,5.16-2.76,2.58,0,3.93,1.23,3.93,5v8.31l1.86.63v.63h-6.48v-.66l1.8-.6v-8.31c-.12-1.74-.81-3-2.76-3a6.07,6.07,0,0,0-3.45,1.56v9.78l1.89.6v.66h-6.54Z"/><path className="cls-2" d="M176.7,114.29c0-2.4,1.74-3.51,4.89-4.32l3-.75v-1.71c0-2.25-1.14-3.63-2.76-3.63a3,3,0,0,0-1.92.6l-.15,3.06a4.75,4.75,0,0,1-1.23.15c-.87,0-1.47-.48-1.47-1.26,0-1.47,2.7-3.63,6-3.63,3.09,0,4.35,1.44,4.35,4.35v8.25c0,.66.18.87.93.87h1.5v.48a8.05,8.05,0,0,1-2.94,1c-1.59,0-2.19-.93-2.25-2.37h-.12c-1.14,1.32-2.22,2.46-4.17,2.46A3.45,3.45,0,0,1,176.7,114.29Zm7.86,0V110l-2.94,1c-1.47.48-2,1.32-2,2.43a2.26,2.26,0,0,0,2.28,2.49A3.54,3.54,0,0,0,184.56,114.32Z"/><path className="cls-2" d="M192.15,114.2l.09-9.54H190v-.9l2.22-.66,2-3.75H195v3.84h4.14v1.56H195v9.45c.21,1.5,1,1.92,2.31,1.92a5.66,5.66,0,0,0,2.07-.42l.18.57a7,7,0,0,1-4.14,1.44C192.9,117.71,192.12,116.36,192.15,114.2Z"/><path className="cls-2" d="M200.61,116.72l1.83-.6V105.8l-1.77-1v-.42l4.59-1.56v13.32l2.07.6v.66h-6.72Zm1.11-19.47a1.92,1.92,0,1,1,1.95,1.92A2,2,0,0,1,201.72,97.25Z"/><path className="cls-2" d="M208.56,110.63c0-4.32,3.24-7.89,7.23-7.89,4.32,0,7.2,2.82,7.2,7.17s-3.18,8-7.2,8A7,7,0,0,1,208.56,110.63Zm3.09-1.29c0,3.54,1.47,7.5,4.59,7.5,2.25,0,3.66-2.43,3.66-5.64,0-4.68-2-7.47-4.59-7.47S211.65,106.4,211.65,109.34Z"/><path className="cls-2" d="M224.58,116.72l1.83-.6V105.8l-1.89-1v-.39l4.29-1.59H229l.15,2.76h.06c.6-.63,2.76-2.76,5.16-2.76,2.58,0,3.93,1.23,3.93,5v8.31l1.86.63v.63h-6.48v-.66l1.8-.6v-8.31c-.12-1.74-.81-3-2.76-3a6.07,6.07,0,0,0-3.45,1.56v9.78l1.89.6v.66h-6.54Z"/><path className="cls-2" d="M241.53,114.29c0-2.4,1.74-3.51,4.89-4.32l3-.75v-1.71c0-2.25-1.13-3.63-2.76-3.63a3,3,0,0,0-1.91.6l-.15,3.06a4.75,4.75,0,0,1-1.23.15c-.87,0-1.47-.48-1.47-1.26,0-1.47,2.7-3.63,6-3.63,3.09,0,4.35,1.44,4.35,4.35v8.25c0,.66.17.87.92.87h1.5v.48a8,8,0,0,1-2.93,1c-1.59,0-2.2-.93-2.25-2.37h-.12c-1.14,1.32-2.22,2.46-4.17,2.46A3.45,3.45,0,0,1,241.53,114.29Zm7.85,0V110l-2.93,1c-1.47.48-2,1.32-2,2.43a2.25,2.25,0,0,0,2.28,2.49A3.51,3.51,0,0,0,249.38,114.32Z"/><path className="cls-2" d="M255.38,116.72l1.92-.6V98l-1.76-1v-.45L260.09,95v21.12l2.11.6v.66h-6.82Z"/><path className="cls-1" d="M111,156.38h14.91V157l-1.89.6v5.89h13.77v-6.14l-3.06-.63v-.07a11.76,11.76,0,0,0,7.91-4.5,10,10,0,0,0,8.68,4.68,9.64,9.64,0,0,0,5.79-2v1.47h13v-5.23a6.07,6.07,0,0,0,1.61,3.87,6.16,6.16,0,0,0,4.57,1.69,9.78,9.78,0,0,0,5.68-1.86l2.09-1-2.42-7.64-2.77,2.69v-5.11H183v-7.56h-4.14v-3.84h-5.48l-2.24,4.12a4.7,4.7,0,0,0-2.54-.73,6,6,0,0,0-1.15.11v0H163.8L158,138a10.43,10.43,0,0,0-6.66-2.22,10,10,0,0,0-7.91,4,8.25,8.25,0,0,0-7.06-3.93,7.73,7.73,0,0,0-1.74.19v-.19h-3.68l-3.08,1.11a4.67,4.67,0,0,0-3.11-1.17,6,6,0,0,0-1.15.11v0H120l-3.84,1.42v-2.3a4.88,4.88,0,0,0-4.59-6.56,5,5,0,0,0-5,4.89,4.91,4.91,0,0,0,2,3.92l-3,1v4.3l1.77,1v4l-6.66-18.13-3.73.77-2.57.56L87.4,149.6l-3,.76v6H111Zm56.76-11.64,1.67.65.63-.41-.05,5.18c0,.08,0,.15,0,.23l-2.26-.59Zm-17-2h.11c.57,0,1.59,1.49,1.59,4.47a4.12,4.12,0,0,1-.66,2.64c-.63,0-1.59-1.93-1.59-4.5A4.38,4.38,0,0,1,150.73,142.74Zm-16,.95h0c.46,0,1.29.93,1.29,2.79,0,.51-.07,3-1.32,3.14Zm-10.8,1.06,1.67.64.31-.2v5.12l-2-.51Zm-26.49,5.46-2.4-.48.08-.22h3.15l.17.47Z"/><path className="cls-1" d="M257.65,128.42h-8.31l1.48,2H234.06v-.55l-5.05.55H216.25l-5.05-.55-.1,9.35-3.62-9.86-3.74.77-2.56.56-7,18.87-.17.05a19.75,19.75,0,0,1-.47-4.46c0-5.24,1.59-8.48,4.16-12l3.48-4.77h-8.29l-.88.91a22.63,22.63,0,0,0-6.81,15.86,22.3,22.3,0,0,0,6.66,15.67l.88.92h8.28L197.64,157c-.16-.22-.29-.43-.44-.64H230v-6.13l-2.73-.57V139l1.05,2.88h4.14v7.85l-2.31.57v6h23c-.14.21-.27.41-.43.62l-3.52,4.78h8.35l.88-.92A22.6,22.6,0,0,0,265.2,145a22.35,22.35,0,0,0-6.67-15.68Zm-53.38,21.79-2.4-.48.07-.22h3.16l.17.47Zm13.77-.54-1.6.33-1.54-.38-2.82-7.7H217L218,139Zm27.29.06-1.87.44-1.87-.44v-3.19h3.74Zm0-10.18h-3.74v-2.44l1.87-.48,1.87.48Zm10.88,10.64-1.72-.42v-12.7l.59-.16a17.57,17.57,0,0,1,1.78,8.1A19.18,19.18,0,0,1,256.21,150.19Z"/><path className="cls-2" d="M87.45,152.69l2.22-.57,6.93-18.81,1-.21,1.17-.24,7.08,19.29,2.19.54v.69h-8v-.69l2.37-.54-2-5.64H93l-2,5.49,3.48.69v.69H87.45ZM93.51,145h6.36l-3.18-8.88h0Z"/><path className="cls-2" d="M108.48,152.72l1.83-.6V141.8l-1.77-1v-.42l4.59-1.56v13.32l2.07.6v.66h-6.72Zm1.11-19.47a1.92,1.92,0,1,1,2,1.92A2,2,0,0,1,109.59,133.25Z"/><path className="cls-2" d="M116.28,152.72l1.83-.6V141.8l-1.89-1v-.39l4.29-1.59h.15l.09,3.87h.12l.36-.63c1.5-2.73,2.31-3.3,3.51-3.3a1.5,1.5,0,0,1,1.62,1.5,2,2,0,0,1-1.11,1.8l-2-.78a4.82,4.82,0,0,0-2.31,2.76v8.1l2.31.6v.66h-7Z"/><path className="cls-2" d="M127,159.83l1.89-.6V141.8l-1.86-1v-.39l4.41-1.59h.15v2.76h.06a5.7,5.7,0,0,1,4.68-2.76c2.73,0,5.55,1.95,5.55,6.72a8.45,8.45,0,0,1-8.25,8.22,8.82,8.82,0,0,1-1.92-.24v5.7l3.06.63v.69H127Zm4.71-17.49v9.27a4.41,4.41,0,0,0,2.91,1c2.4,0,4.41-2,4.41-6.15,0-3.39-1.92-5.79-4.29-5.79A3.77,3.77,0,0,0,131.73,142.34Z"/><path className="cls-2" d="M144.09,146.63c0-4.32,3.24-7.89,7.23-7.89,4.32,0,7.2,2.82,7.2,7.17s-3.18,8-7.2,8A7,7,0,0,1,144.09,146.63Zm3.09-1.29c0,3.54,1.47,7.5,4.59,7.5,2.25,0,3.66-2.43,3.66-5.64,0-4.68-2-7.47-4.59-7.47S147.18,142.4,147.18,145.34Z"/><path className="cls-2" d="M160.11,152.72l1.83-.6V141.8l-1.89-1v-.39l4.29-1.59h.15l.09,3.87h.12l.36-.63c1.5-2.73,2.31-3.3,3.51-3.3a1.5,1.5,0,0,1,1.62,1.5,2,2,0,0,1-1.11,1.8l-2-.78a4.82,4.82,0,0,0-2.31,2.76v8.1l2.31.6v.66h-7Z"/><path className="cls-2" d="M173,150.2l.09-9.54h-2.22v-.9l2.22-.66,2-3.75h.69v3.84H180v1.56h-4.14v9.45c.21,1.5,1,1.92,2.31,1.92a5.66,5.66,0,0,0,2.07-.42l.18.57a7,7,0,0,1-4.14,1.44C173.76,153.71,173,152.36,173,150.2Z"/><path className="cls-2" d="M194.07,158.78a19.43,19.43,0,0,1-5.82-13.59,19.78,19.78,0,0,1,6-13.77h1.11c-3.06,4.2-4.74,8-4.74,13.77a21.59,21.59,0,0,0,4.62,13.59Z"/><path className="cls-2" d="M194.28,152.69l2.22-.57,6.93-18.81,1-.21,1.17-.24,7.08,19.29,2.19.54v.69h-8v-.69l2.37-.54-2-5.64h-7.38l-2,5.49,3.48.69v.69h-7.08Zm6.06-7.65h6.36l-3.18-8.88h0Z"/><path className="cls-2" d="M229.17,133.46l1.91-.21.07,5.67h-.78l-1.62-4.41h-4.53v17.61l2.73.57v.69h-8.7v-.69l2.79-.57V134.51h-4.53l-1.62,4.41h-.78l.06-5.67,1.92.21Z"/><path className="cls-2" d="M245.88,152.69l2.45-.57v-8.58h-9.74v8.58l2.46.57v.69h-8v-.69l2.31-.57V134.78l-2.31-.63v-.69h8v.69l-2.46.63v7.77h9.74v-7.77l-2.45-.63v-.69h7.92v.69l-2.31.63v17.34l2.31.57v.69h-7.92Z"/><path className="cls-2" d="M256.38,131.42A19.43,19.43,0,0,1,262.2,145a19.75,19.75,0,0,1-5.94,13.77h-1.14c3.09-4.2,4.74-8,4.74-13.77a21.41,21.41,0,0,0-4.62-13.59Z"/><path className="cls-1" d="M263.31,179.81c0-7-4.33-8-6.9-8a8.66,8.66,0,0,0-4.51,1.38,7,7,0,0,0-4.52-1.38,7.64,7.64,0,0,0-2.51.43l0-.43h-3.53l-1.71.63v-.24h-9.48v-9.41l-10.56,3.68v4.34l1.77,1v3.41a10.71,10.71,0,0,0-8.85-4.3,10.93,10.93,0,0,0-8.53,4.4,7.07,7.07,0,0,0-6.89-4.43,8.43,8.43,0,0,0-7.59,5.09v-4.77l-5.15-.2L176,181.13l6.6-15.21-6.46-3-8.94,20.73V170.92a4.92,4.92,0,1,0-7.54,2.25l-1.91.65a6.67,6.67,0,0,0-5.07-2,8.69,8.69,0,0,0-4.51,1.38,7,7,0,0,0-4.52-1.38,7.64,7.64,0,0,0-2.51.43l0-.43h-3.53l-4.72,1.75a7.35,7.35,0,0,0-5.9-2.68,8.46,8.46,0,0,0-7.61,5.13,8.25,8.25,0,0,0-2.55-1.5,25.77,25.77,0,0,1,4.89-2.7l2.48-1.06-1.9-6.16-2.81.79c-8.2,2.29-12.92,6.52-15.22,10.8a7,7,0,0,0-7.13-5.3c-3.39,0-6.23,2-7.78,5.53l-1.07,2.4L93.47,182l1.64-2.27a4,4,0,0,1,.46-.57c-.17,1-2.14,3.16-4.22,5.43l-.67.74-2,2.13v4.89H106v-1.6a9.87,9.87,0,0,0,6.36,2.2,9.76,9.76,0,0,0,6.63-2.5,4.63,4.63,0,0,0-1.08,3c0,2.82,2.49,5,5.67,5a11.48,11.48,0,0,0,10.27-6.09h29.5l-1.87,4.33,6.45,2.93,3.44-7.94v.11h9.33v6.42h8.76v-1.45a6,6,0,0,0,4.26,1.69c6,0,10.32-4.26,11.11-8.54a11,11,0,0,0,7.79,3,10.61,10.61,0,0,0,6.87-2.6v2H232v-.49a6,6,0,0,0,3.18.85,5.71,5.71,0,0,0,2-.36h28v-5.79l-1.89-.63ZM102.46,183c0,.35,0,.7.07,1h-.89C101.93,183.73,102.2,183.38,102.46,183ZM113,186c-.55,0-1.35-1.22-1.35-3.84a4.49,4.49,0,0,1,0-.64,1.18,1.18,0,0,1,.38-.08c.86,0,1.32,1.39,1.32,2.76C113.34,185.42,113.06,186,113,186Zm12.1-6.39a2.88,2.88,0,0,1,.42-.53,2.09,2.09,0,0,1-.69,1Zm-2.81,1.63s0,0,0-.06l.08,0Zm3.37,9.89c-.29-.35-.6-.74-.9-1.14l-1.09-1.45-1.79.29a4.63,4.63,0,0,0-2.16,1,10.35,10.35,0,0,0,1.08-1.39l2.85-.07c.94,0,2.52.19,2.52,1.5A1.44,1.44,0,0,1,125.61,191.15Zm6.77-8.32.31-.38v.7C132.59,183,132.49,182.93,132.38,182.83Zm9.34,3.12-.07,0-.14-.05v-6l.2-.08a.25.25,0,0,0,0,.08Zm9,0-.13,0-.08,0v-6l.2-.09a.19.19,0,0,0,0,.08Zm44.44-6.33a2.88,2.88,0,0,1,.42-.53,2.09,2.09,0,0,1-.69,1Zm-2.74,1.61-1.95.52v2.07h-1v-4.14Zm3.3,9.91c-.29-.35-.6-.74-.9-1.14l-1.09-1.45-.14,0v-.22h.12c.94,0,2.52.19,2.52,1.5A1.44,1.44,0,0,1,195.75,191.15Zm17.34-5.25c-1.52,0-2.22-2.9-2.22-4.86s.63-3.09,1.23-3.09c.84,0,2.07,1.85,2.07,4.74C214.17,184.46,213.68,185.9,213.09,185.9Zm22.9-6.56.47.25v4.47l-2.53-2.9Zm9.5,6.61-.07,0-.14-.05v-6l.2-.08a.17.17,0,0,0,0,.07Zm9,0-.13,0-.08,0v-6l.2-.09V186Z"/><path className="cls-2" d="M94.53,187.07H103v2.31H91.65v-.69l1.2-1.26c3.51-3.84,5.73-6.09,5.73-8.37a2.78,2.78,0,0,0-2.79-3c-1.44,0-2.28.81-3.12,2l-.63-.39c.93-2.1,2.61-3.75,5-3.75,2.73,0,4.32,1.74,4.32,3.93,0,2.52-2.25,4.65-4.74,7.14Z"/><path className="cls-2" d="M109.26,178.76a6.59,6.59,0,0,1,4.23-1.83A5.69,5.69,0,0,1,119.4,183a7.06,7.06,0,0,1-7,7c-3.72,0-6.93-2.58-6.93-7.26,0-7.29,7.59-12.45,14.79-14.46l.24.78C116,171,111,174.35,109.26,178.76Zm-.3,1a8.57,8.57,0,0,0-.36,2.46c0,4.71,2.07,6.84,4.35,6.84,2,0,3.39-1.62,3.39-4.8,0-3.54-1.86-5.76-4.32-5.76A4.64,4.64,0,0,0,109,179.72Z"/><path className="cls-2" d="M120.93,193.43a1.67,1.67,0,0,1,1.38-1.62,21.57,21.57,0,0,0,2.28,2.64,4.34,4.34,0,0,0,4.53-4.59c0-2.73-2.22-4.59-5.76-4.5v-1.29l1-.27c2.7-1.23,4.11-3,4.11-4.83a2.77,2.77,0,0,0-2.88-2.94,3.58,3.58,0,0,0-3.06,1.95l-.69-.36a5.58,5.58,0,0,1,5.07-3.75c2.76,0,4.35,1.74,4.35,4,0,2.43-1.83,3.87-3.66,5l-.9.57v.06c2.52.27,5.13,2,5.13,5.1,0,4-4.59,6.9-8.25,6.9C122.22,195.47,120.93,194.66,120.93,193.43Z"/><path className="cls-2" d="M152,188.72l1.8-.6v-8.31c-.12-1.74-.81-3-2.76-3a6.07,6.07,0,0,0-3.45,1.56v9.78l1.86.63v.63h-6.51v-.66l1.83-.6v-8.31c-.12-1.74-.81-3-2.76-3a6.17,6.17,0,0,0-3.45,1.56v9.78l1.89.6v.66h-6.54v-.66l1.83-.6V177.8l-1.89-1v-.39l4.29-1.59h.15l.15,2.76h.06c.6-.63,2.76-2.76,5.16-2.76,2.07,0,3.3.66,3.72,2.85h.06c.48-.51,2.76-2.85,5.25-2.85s3.9,1.23,3.9,5v8.31l1.89.63v.63H152Z"/><path className="cls-2" d="M159.51,188.72l1.83-.6V177.8l-1.77-1v-.42l4.59-1.56v13.32l2.07.6v.66h-6.72Zm1.11-19.47a1.92,1.92,0,1,1,1.95,1.92A2,2,0,0,1,160.62,169.25Z"/><path className="cls-2" d="M165.42,195.2l12.21-28.29,1,.48-12.24,28.26Z"/><path className="cls-2" d="M183.72,188.81h-9.33v-1.05l11.31-13.71.78,0v12.75h4.14v2h-4.14v6.42h-2.76Zm0-2v-8.94l-7.29,8.94Z"/><path className="cls-2" d="M191.07,193.43a1.67,1.67,0,0,1,1.38-1.62,21.57,21.57,0,0,0,2.28,2.64,4.34,4.34,0,0,0,4.53-4.59c0-2.73-2.22-4.59-5.76-4.5v-1.29l1-.27c2.7-1.23,4.11-3,4.11-4.83a2.77,2.77,0,0,0-2.88-2.94,3.58,3.58,0,0,0-3.06,1.95l-.69-.36a5.58,5.58,0,0,1,5.07-3.75c2.76,0,4.35,1.74,4.35,4,0,2.43-1.83,3.87-3.66,5l-.9.57v.06c2.52.27,5.13,2,5.13,5.1,0,4-4.59,6.9-8.25,6.9C192.36,195.47,191.07,194.66,191.07,193.43Z"/><path className="cls-2" d="M204.63,181.94a8.19,8.19,0,0,1,7.86-8,7.67,7.67,0,0,1,7.95,8,8.07,8.07,0,0,1-7.8,8A7.64,7.64,0,0,1,204.63,181.94Zm3.24-.9c0,3.45,1.41,7.86,5.22,7.86,2.46,0,4.08-2.31,4.08-6.21,0-4.32-2.1-7.74-5.07-7.74C209.73,175,207.87,177.23,207.87,181Z"/><path className="cls-2" d="M224.34,170l-1.77-1v-.45l4.56-1.59v21.12l1.89.6v.66h-6.51v-.66l1.83-.6Zm7.47,17.58-4.47-5.76,5.61-5.1-2-.93v-.63h5.67v.54l-2,.81-4.92,4.35,7.2,8.25a2.92,2.92,0,0,1-1.71.6C234,189.74,233.1,189.29,231.81,187.61Z"/><path className="cls-2" d="M255.72,188.72l1.8-.6v-8.31c-.12-1.74-.81-3-2.77-3a6.07,6.07,0,0,0-3.44,1.56v9.78l1.86.63v.63h-6.51v-.66l1.83-.6v-8.31c-.12-1.74-.81-3-2.76-3a6.17,6.17,0,0,0-3.45,1.56v9.78l1.89.6v.66h-6.54v-.66l1.83-.6V177.8l-1.89-1v-.39l4.29-1.59H242l.15,2.76h.06c.6-.63,2.76-2.76,5.16-2.76,2.07,0,3.3.66,3.72,2.85h.06c.48-.51,2.76-2.85,5.25-2.85s3.9,1.23,3.9,5v8.31l1.89.63v.63h-6.48Z"/><path className="cls-1" d="M198.52,35.84l14.8-4.51,10.91,13.3L222.89,46,195.73,63.91l5.79,5.79,12-3.24,2.23,2.22a4.22,4.22,0,0,0,6,0l2.83-2.82a4.14,4.14,0,0,0,1-1.68l.59.59a4.22,4.22,0,0,0,6,0L235,62a4.35,4.35,0,0,0,1-1.57l2.52-.68,4.2,4.2c7.91,7.91,13.56,9.57,16.91,9.57a7.34,7.34,0,0,0,3.71-.86l.64-.38.39-.65c.74-1.24,3.83-8.07-8.71-20.61l-4.21-4.21.68-2.51a4.19,4.19,0,0,0,1.57-1l2.83-2.83a4.23,4.23,0,0,0,0-6l-.6-.59a4.28,4.28,0,0,0,1.68-1L260.39,30a4.22,4.22,0,0,0,0-6l-2.23-2.23,3.24-12L255.62,4l-18,27.16-1.34,1.34L223,21.62l4.51-14.8L220.72,0l-8.25,13.75c-5.11-3-6.31-3-6.93-3h-.38l-2.26.45-.39,2c-.17.89-.39,2,2.94,7.61L191.7,29Z"/><path className="cls-3" d="M224.8,48.31,200.45,64.39l2,2,12-3.24,3.46,3.45a1.23,1.23,0,0,0,1.74,0l2.83-2.82a1.23,1.23,0,0,0,0-1.74l-.84-.84,4.1-1.11,2.6,2.6a1.23,1.23,0,0,0,1.74,0l2.83-2.82a1.23,1.23,0,0,0,0-1.72l6.5-1.76,5.43,5.43c11.52,11.52,17,8.26,17,8.26s3.26-5.43-8.25-17l-5.44-5.43,1.76-6.51a1.23,1.23,0,0,0,1.72,0l2.82-2.82a1.23,1.23,0,0,0,0-1.74l-2.6-2.6,1.12-4.1.83.83a1.23,1.23,0,0,0,1.74,0l2.83-2.82a1.23,1.23,0,0,0,0-1.74l-3.46-3.46,3.24-12-2-2L240,33.09l-3.48,3.48L219.58,22.66l4.56-15-2.82-2.82-7.82,13s-7-4.35-8.05-4.13c-.21,1.09,4.13,8,4.13,8l-13,7.83,2.83,2.82,15-4.56,13.91,17Z"/></g></g></svg>