<svg xmlns="http://www.w3.org/2000/svg" viewBox="0 0 334.74 199.64"><defs><style>.cls-1{fill:#f0e8d7;}.cls-2{fill:#383838;}.cls-3{fill:#1a4531;}</style></defs><g id="Layer_2" data-name="Layer 2"><g id="Layer_1-2" data-name="Layer 1"><path className="cls-1" d="M162.9,98.91a4.84,4.84,0,0,0,.3-1.66,4.92,4.92,0,0,0-9.84,0,4.87,4.87,0,0,0,1,2.94h-6.63V90.78l-9,3.14a4.89,4.89,0,0,0-3.53-1.56,4.87,4.87,0,0,0-3,8.81l-1.9.65a6.69,6.69,0,0,0-5.08-2,7.69,7.69,0,0,0-2.51.43l0-.43h-3.53L113.4,102a10.41,10.41,0,0,0-6.66-2.22,9.93,9.93,0,0,0-7.56,3.58V90.78L88.62,94.46V98.8l1.77,1v3.34C89.24,101,87,99.8,83.94,99.8a10.67,10.67,0,0,0-6.36,2.09l-1.38-.78a10.42,10.42,0,0,0-5.1-1.34,9.32,9.32,0,0,0-6,2l-1.21-.68a10.45,10.45,0,0,0-5.1-1.34,8.86,8.86,0,0,0-7,3.08,7.72,7.72,0,0,0-6.47-3.11A9.58,9.58,0,0,0,37.59,104a6.27,6.27,0,0,0-6.33-4.16,7.67,7.67,0,0,0-2.1.3V90.78L18.9,94.35l-1,.11H5.17l-5-.55-.13,12H5.91l1-2.87v10.62l-2.79.57v6.14H40.08v-.88a9.31,9.31,0,0,0,4.71,1.3,9.06,9.06,0,0,0,5.79-2l1.29.69a11.59,11.59,0,0,0,5.37,1.4,9.62,9.62,0,0,0,5.91-2l1,.55a11.59,11.59,0,0,0,5.37,1.4,9.46,9.46,0,0,0,6.5-2.45,6.81,6.81,0,0,0,5.2,2.39,7.09,7.09,0,0,0,3.55-.93,5.36,5.36,0,0,0,3,.84,7,7,0,0,0,2.07-.36h11.43v-1a10.43,10.43,0,0,0,5.46,1.5,9.64,9.64,0,0,0,5.79-2v1.47h37.11v-.49a6.12,6.12,0,0,0,3.18.85,5.71,5.71,0,0,0,2-.36H165v-5.92l-2.07-.6Zm-144,15.53v-.19l-2.73-.57V103.05l1.06,2.87h3.17v8Zm10.5-.48h-.05l-.16,0v-6l.21-.09V114Zm16.74-1.47a1.7,1.7,0,0,1-1.58-.93h3.52A3.35,3.35,0,0,1,46.11,112.49Zm61.08,1.35c-.63,0-1.59-1.93-1.59-4.5a4.38,4.38,0,0,1,.55-2.6h.11c.57,0,1.59,1.49,1.59,4.47A4.12,4.12,0,0,1,107.19,113.84Zm16.2.12h0l-.16,0v-6l.2-.09V114Zm30.27-6.67.42.24v4.53l-2.53-2.9Z"/><path className="cls-1" d="M334.74,114.46l-2.11-.6V90.78l-10.55,3.68V98.8l1.76,1v3.33c-1.14-2.14-3.35-3.32-6.44-3.32a10.28,10.28,0,0,0-7.6,3.24,6.36,6.36,0,0,0-5.93-3.24,7.64,7.64,0,0,0-2.51.43l0-.43h-3.53L292,102a10.43,10.43,0,0,0-6.66-2.22,9.93,9.93,0,0,0-7.53,3.54V98.91a4.84,4.84,0,0,0,.3-1.66,4.92,4.92,0,0,0-9.84,0,4.81,4.81,0,0,0,1,2.94h-1.77V96.35H262l-2.3,4.23-2.27.67a7.79,7.79,0,0,0-4.89-1.45A10.28,10.28,0,0,0,245,103,6.35,6.35,0,0,0,239,99.8a7.64,7.64,0,0,0-2.51.43l0-.43H233l-3,1.12a4.68,4.68,0,0,0-3.13-1.18,6,6,0,0,0-1.15.11v0h-3.62l-5.39,2a7.87,7.87,0,0,0-5.53-2.06,8.92,8.92,0,0,0-5,1.6v-1.15H202V96.35h-5.48l-2.3,4.23-2.13.63a7,7,0,0,0-4.46-1.41,7.64,7.64,0,0,0-2.51.43l0-.43h-3.53l-4.8,1.78v-.51l2.31-.63v-6h-13.8v6l2.31.63v12.67l-2.31.54v6.1h31.14v-.3a7,7,0,0,0,3,.63,9.8,9.8,0,0,0,5.63-1.83,9.32,9.32,0,0,0,10.36.65v.85h32a7.1,7.1,0,0,0,6-.48,5.39,5.39,0,0,0,3,.84,10.26,10.26,0,0,0,4.39-1.37,6.32,6.32,0,0,0,4.13,1.34,9.58,9.58,0,0,0,2.45-.33h12.49v-1a10.43,10.43,0,0,0,5.46,1.5,9.64,9.64,0,0,0,5.79-2v1.47h21.12a7.1,7.1,0,0,0,6-.48,5.39,5.39,0,0,0,3,.84,6.91,6.91,0,0,0,2.06-.36h11.44Zm-149-.5h0l-.16,0v-6l.2-.09V114ZM212,112.49a1.7,1.7,0,0,1-1.58-.93h3.52A3.35,3.35,0,0,1,212,112.49ZM226,113.8v-5l1.67.64.43-.28V114l-.68.22Zm11.13.16h-.06l-.15,0v-6l.2-.09a.19.19,0,0,0,0,.08Zm30.36-1.1v-5.11H269v3.69Zm18.26,1c-.62,0-1.59-1.93-1.59-4.5a4.25,4.25,0,0,1,.56-2.6h.1c.58,0,1.59,1.49,1.59,4.47A4.05,4.05,0,0,1,285.77,113.84ZM302,114h-.05l-.15,0v-6l.2-.09V114Z"/><path className="cls-2" d="M18.09,97.46,20,97.25l.06,5.67h-.78l-1.62-4.41H13.14v17.61l2.73.57v.69H7.17v-.69l2.79-.57V98.51H5.43l-1.62,4.41H3l.06-5.67L5,97.46Z"/><path className="cls-2" d="M30.57,116.72l1.8-.6v-8.31c-.09-1.74-.78-3-2.76-3a6.38,6.38,0,0,0-3.45,1.56v9.78l1.89.6v.66H21.54v-.66l1.83-.6V98L21.6,97v-.45L26.16,95v10.53c.63-.66,2.73-2.73,5.1-2.73,2.61,0,3.93,1.23,3.93,5v8.31l1.89.63v.63H30.57Z"/><path className="cls-2" d="M38.46,110.6c0-4.35,3.27-7.86,6.84-7.86,3.06,0,5,1.89,5.46,5.82H41.1a6.27,6.27,0,0,0,0,.75c0,3.84,2,6.18,5,6.18a6.59,6.59,0,0,0,4.38-2.1l.48.36c-1,1.68-2.76,4-6.18,4C40.62,117.8,38.46,114.23,38.46,110.6Zm2.73-2.94h6.3c-.33-2.43-1.26-3.84-3-3.84S41.55,105.26,41.19,107.66Z"/><path className="cls-2" d="M53.28,116.84l-.18-4.35h.6L55.2,116a3.06,3.06,0,0,0,2.25.9,2.69,2.69,0,0,0,2.91-2.67c0-1.23-.6-1.89-2.28-2.58l-2-.84c-1.68-.69-2.79-1.71-2.79-3.75,0-2.61,2.49-4.32,5.52-4.32a7.38,7.38,0,0,1,3.63,1l0,3.75h-.57l-1.35-3a3.4,3.4,0,0,0-2-.75A2.34,2.34,0,0,0,56,106c0,1.35.78,2,2.37,2.58l1.32.54c2.52,1,3.48,2.1,3.48,3.9,0,2.88-2.82,4.83-5.88,4.83A8.66,8.66,0,0,1,53.28,116.84Z"/><path className="cls-2" d="M65.58,116.84l-.18-4.35H66L67.5,116a3.06,3.06,0,0,0,2.25.9,2.69,2.69,0,0,0,2.91-2.67c0-1.23-.6-1.89-2.28-2.58l-2-.84c-1.68-.69-2.79-1.71-2.79-3.75,0-2.61,2.49-4.32,5.52-4.32a7.38,7.38,0,0,1,3.63,1l0,3.75h-.57l-1.35-3a3.4,3.4,0,0,0-2-.75A2.34,2.34,0,0,0,68.25,106c0,1.35.78,2,2.37,2.58l1.32.54c2.52,1,3.48,2.1,3.48,3.9,0,2.88-2.82,4.83-5.88,4.83A8.66,8.66,0,0,1,65.58,116.84Z"/><path className="cls-2" d="M77.61,114.29c0-2.4,1.74-3.51,4.89-4.32l3-.75v-1.71c0-2.25-1.14-3.63-2.76-3.63a3,3,0,0,0-1.92.6l-.15,3.06a4.75,4.75,0,0,1-1.23.15c-.87,0-1.47-.48-1.47-1.26,0-1.47,2.7-3.63,6-3.63,3.09,0,4.35,1.44,4.35,4.35v8.25c0,.66.18.87.93.87h1.5v.48a8.05,8.05,0,0,1-2.94,1c-1.59,0-2.19-.93-2.25-2.37h-.12c-1.14,1.32-2.22,2.46-4.17,2.46A3.45,3.45,0,0,1,77.61,114.29Zm7.86,0V110l-2.94,1c-1.47.48-2,1.32-2,2.43a2.26,2.26,0,0,0,2.28,2.49A3.54,3.54,0,0,0,85.47,114.32Z"/><path className="cls-2" d="M91.47,116.72l1.92-.6V98l-1.77-1v-.45L96.18,95v21.12l2.1.6v.66H91.47Z"/><path className="cls-2" d="M99.51,110.63c0-4.32,3.24-7.89,7.23-7.89,4.32,0,7.2,2.82,7.2,7.17s-3.18,8-7.2,8A7,7,0,0,1,99.51,110.63Zm3.09-1.29c0,3.54,1.47,7.5,4.59,7.5,2.25,0,3.66-2.43,3.66-5.64,0-4.68-2-7.47-4.59-7.47S102.6,106.4,102.6,109.34Z"/><path className="cls-2" d="M115.53,116.72l1.83-.6V105.8l-1.89-1v-.39l4.29-1.59h.15l.15,2.76h.06c.6-.63,2.76-2.76,5.16-2.76,2.58,0,3.93,1.23,3.93,5v8.31l1.86.63v.63h-6.48v-.66l1.8-.6v-8.31c-.12-1.74-.81-3-2.76-3a6.07,6.07,0,0,0-3.45,1.56v9.78l1.89.6v.66h-6.54Z"/><path className="cls-2" d="M132.15,116.72l1.83-.6V105.8l-1.77-1v-.42l4.59-1.56v13.32l2.07.6v.66h-6.72Zm1.11-19.47a1.92,1.92,0,1,1,2,1.92A2,2,0,0,1,133.26,97.25Z"/><path className="cls-2" d="M142,98l-1.77-1v-.45L144.75,95v21.12l1.89.6v.66h-6.51v-.66l1.83-.6Zm7.47,17.58L145,109.85l5.61-5.1-2-.93v-.63h5.67v.54l-2,.81-4.92,4.35,7.2,8.25a2.92,2.92,0,0,1-1.71.6C151.65,117.74,150.72,117.29,149.43,115.61Z"/><path className="cls-2" d="M155.25,116.72l1.83-.6V105.8l-1.77-1v-.42l4.59-1.56v13.32l2.07.6v.66h-6.72Zm1.11-19.47a1.92,1.92,0,1,1,1.95,1.92A2,2,0,0,1,156.36,97.25Z"/><path className="cls-2" d="M168.24,116.66l2.31-.54V98.78l-2.31-.63v-.69H176v.69l-2.31.63v17.34l2.31.57v.69h-7.8Z"/><path className="cls-2" d="M177.84,116.72l1.83-.6V105.8l-1.89-1v-.39l4.29-1.59h.15l.15,2.76h.06c.6-.63,2.76-2.76,5.16-2.76,2.58,0,3.93,1.23,3.93,5v8.31l1.86.63v.63H186.9v-.66l1.8-.6v-8.31c-.12-1.74-.81-3-2.76-3a6.07,6.07,0,0,0-3.45,1.56v9.78l1.89.6v.66h-6.54Z"/><path className="cls-2" d="M196.14,114.2l.09-9.54H194v-.9l2.22-.66,2-3.75H199v3.84h4.14v1.56H199v9.45c.21,1.5,1,1.92,2.31,1.92a5.66,5.66,0,0,0,2.07-.42l.18.57a7,7,0,0,1-4.14,1.44C196.89,117.71,196.11,116.36,196.14,114.2Z"/><path className="cls-2" d="M204.3,110.6c0-4.35,3.27-7.86,6.84-7.86,3.06,0,5,1.89,5.46,5.82h-9.66a6.27,6.27,0,0,0,0,.75c0,3.84,2,6.18,5,6.18a6.59,6.59,0,0,0,4.38-2.1l.48.36c-1,1.68-2.76,4-6.18,4C206.46,117.8,204.3,114.23,204.3,110.6Zm2.73-2.94h6.3c-.33-2.43-1.26-3.84-3-3.84S207.39,105.26,207,107.66Z"/><path className="cls-2" d="M218.37,116.72l1.83-.6V105.8l-1.89-1v-.39l4.29-1.59h.15l.09,3.87H223l.36-.63c1.5-2.73,2.31-3.3,3.51-3.3a1.5,1.5,0,0,1,1.62,1.5,2,2,0,0,1-1.11,1.8l-2-.78A4.82,4.82,0,0,0,223,108v8.1l2.31.6v.66h-7Z"/><path className="cls-2" d="M229.29,116.72l1.83-.6V105.8l-1.89-1v-.39l4.29-1.59h.15l.15,2.76h.06c.6-.63,2.76-2.76,5.16-2.76,2.58,0,3.93,1.23,3.93,5v8.31l1.86.63v.63h-6.48v-.66l1.8-.6v-8.31c-.12-1.74-.81-3-2.76-3a6.07,6.07,0,0,0-3.45,1.56v9.78l1.89.6v.66h-6.54Z"/><path className="cls-2" d="M246.24,114.29c0-2.4,1.74-3.51,4.89-4.32l3-.75v-1.71c0-2.25-1.14-3.63-2.76-3.63a3,3,0,0,0-1.92.6l-.15,3.06a4.75,4.75,0,0,1-1.23.15c-.87,0-1.47-.48-1.47-1.26,0-1.47,2.7-3.63,6-3.63,3.09,0,4.35,1.44,4.35,4.35v8.25c0,.66.18.87.93.87h1.5v.48a8.05,8.05,0,0,1-2.94,1c-1.59,0-2.19-.93-2.25-2.37H254c-1.14,1.32-2.22,2.46-4.17,2.46A3.45,3.45,0,0,1,246.24,114.29Zm7.86,0V110l-2.94,1c-1.47.48-2,1.32-2,2.43a2.26,2.26,0,0,0,2.28,2.49A3.54,3.54,0,0,0,254.1,114.32Z"/><path className="cls-2" d="M261.69,114.2l.09-9.54h-2.22v-.9l2.22-.66,2-3.75h.69v3.84h4.14v1.56h-4.14v9.45c.21,1.5,1,1.92,2.31,1.92a5.66,5.66,0,0,0,2.07-.42l.18.57a7,7,0,0,1-4.14,1.44C262.44,117.71,261.66,116.36,261.69,114.2Z"/><path className="cls-2" d="M270.15,116.72l1.83-.6V105.8l-1.77-1v-.42l4.59-1.56v13.32l2.07.6v.66h-6.72Zm1.11-19.47a1.92,1.92,0,1,1,1.95,1.92A2,2,0,0,1,271.26,97.25Z"/><path className="cls-2" d="M278.09,110.63c0-4.32,3.24-7.89,7.24-7.89a6.76,6.76,0,0,1,7.19,7.17c0,4.38-3.18,8-7.19,8A7,7,0,0,1,278.09,110.63Zm3.09-1.29c0,3.54,1.48,7.5,4.59,7.5,2.25,0,3.66-2.43,3.66-5.64,0-4.68-2-7.47-4.59-7.47S281.18,106.4,281.18,109.34Z"/><path className="cls-2" d="M294.12,116.72l1.83-.6V105.8l-1.89-1v-.39l4.29-1.59h.15l.15,2.76h.06c.6-.63,2.75-2.76,5.16-2.76,2.58,0,3.92,1.23,3.92,5v8.31l1.87.63v.63h-6.49v-.66l1.8-.6v-8.31c-.11-1.74-.8-3-2.76-3a6.07,6.07,0,0,0-3.44,1.56v9.78l1.89.6v.66h-6.54Z"/><path className="cls-2" d="M311.07,114.29c0-2.4,1.74-3.51,4.89-4.32l3-.75v-1.71c0-2.25-1.13-3.63-2.75-3.63a3,3,0,0,0-1.92.6l-.15,3.06a4.75,4.75,0,0,1-1.23.15c-.87,0-1.47-.48-1.47-1.26,0-1.47,2.7-3.63,6-3.63,3.09,0,4.35,1.44,4.35,4.35v8.25c0,.66.17.87.92.87h1.5v.48a8,8,0,0,1-2.93,1c-1.59,0-2.2-.93-2.25-2.37h-.12c-1.14,1.32-2.22,2.46-4.17,2.46A3.45,3.45,0,0,1,311.07,114.29Zm7.85,0V110L316,111c-1.47.48-2,1.32-2,2.43a2.26,2.26,0,0,0,2.28,2.49A3.51,3.51,0,0,0,318.92,114.32Z"/><path className="cls-2" d="M324.92,116.72l1.92-.6V98l-1.76-1v-.45L329.63,95v21.12l2.11.6v.66h-6.82Z"/><path className="cls-1" d="M184.44,156.38h14.91V157l-1.89.6v5.89h13.77v-6.14l-3.06-.63v-.07a11.76,11.76,0,0,0,7.91-4.5,10,10,0,0,0,8.68,4.68,9.64,9.64,0,0,0,5.79-2v1.47h13v-5.23a6.07,6.07,0,0,0,1.61,3.87,6.16,6.16,0,0,0,4.57,1.69,9.78,9.78,0,0,0,5.68-1.86l2.09-1L255,146.17l-2.77,2.69v-5.11h4.14v-7.56h-4.14v-3.84h-5.48l-2.24,4.12a4.7,4.7,0,0,0-2.54-.73,6,6,0,0,0-1.15.11v0h-3.62L231.42,138a10.43,10.43,0,0,0-6.66-2.22,10,10,0,0,0-7.91,4,8.25,8.25,0,0,0-7.06-3.93,7.73,7.73,0,0,0-1.74.19v-.19h-3.68l-3.08,1.11a4.67,4.67,0,0,0-3.11-1.17,6,6,0,0,0-1.15.11v0h-3.62l-3.84,1.42v-2.3a4.88,4.88,0,0,0-4.59-6.56,5,5,0,0,0-4.95,4.89,4.91,4.91,0,0,0,2,3.92l-3.05,1v4.3l1.77,1v4l-6.66-18.13-3.73.77-2.57.56-6.95,18.87-3,.76v6h26.55Zm56.76-11.64,1.67.65.63-.41-.05,5.18c0,.08,0,.15,0,.23l-2.26-.59Zm-17-2h.11c.57,0,1.59,1.49,1.59,4.47a4.12,4.12,0,0,1-.66,2.64c-.63,0-1.59-1.93-1.59-4.5A4.38,4.38,0,0,1,224.17,142.74Zm-16,.95h0c.46,0,1.29.93,1.29,2.79,0,.51-.07,3-1.32,3.14Zm-10.8,1.06,1.67.64.31-.2v5.12l-2-.51Zm-26.49,5.46-2.4-.48.08-.22h3.15l.17.47Z"/><path className="cls-1" d="M327.15,128.35l-8.31,0,1.54,2.11a15.15,15.15,0,0,0-4.25-.58,15.42,15.42,0,0,0-10.61,4.3v-3.76l-23.73.05V131a11.71,11.71,0,0,0-4.89-1.13,11.93,11.93,0,0,0-3.75.62l1.49-2.05-8.28,0-.89.92a22.61,22.61,0,0,0-6.77,15.87,22.34,22.34,0,0,0,6.7,15.66l.88.91,8.28,0-3.44-4.75c-.26-.36-.49-.7-.72-1.05a13.12,13.12,0,0,0,5,1,11.68,11.68,0,0,0,6.45-2v1.43l14,0v-1.94l1.56,1.94,9.39,0v-1.6a14.33,14.33,0,0,0,8.19,2.3,17.39,17.39,0,0,0,8-2l.88-.44c-.46.76-1,1.54-1.56,2.36l-3.51,4.79,8.35,0,.88-.92a22.6,22.6,0,0,0,6.75-15.87,22.36,22.36,0,0,0-6.7-15.66Zm-43.84,13.51h.81v.86A9.37,9.37,0,0,0,283.31,141.86Zm-14,2.46h-2.29a19.21,19.21,0,0,1,.34-3.08A7.21,7.21,0,0,0,269.35,144.32Zm6.33,5.69a3.4,3.4,0,0,1-1.16-.19l-1.21-3,1.57.73c1.87.88,1.87,1.3,1.87,1.54S276.76,150,275.68,150Zm.3-12.41a1.59,1.59,0,0,1,0-.37c0-.15,0-.36.63-.36a.83.83,0,0,1,.28,0l.7,1.62A7.44,7.44,0,0,1,276,137.6Zm25.86-.16,1.38-.38a13.12,13.12,0,0,0-2,6.89,14.29,14.29,0,0,0,.4,3.24L297.34,142Zm14.54,11.42v.95l-.42,0c-3.19,0-5-2.34-5-6.44,0-3.06,1.26-6.34,4.85-6.34a3.22,3.22,0,0,1,1.6.36l2,4.52H313v6.45Zm8.88-10.5a16,16,0,0,1,.92,3.55h-.89Zm.24,10,.68-.18a16.66,16.66,0,0,1-.67,2.83Z"/><path className="cls-2" d="M160.89,152.69l2.22-.57L170,133.31l1-.21,1.17-.24,7.08,19.29,2.19.54v.69h-7.95v-.69l2.37-.54-2-5.64h-7.38L164.49,152l3.48.69v.69h-7.08ZM167,145h6.36l-3.18-8.88h0Z"/><path className="cls-2" d="M181.92,152.72l1.83-.6V141.8l-1.77-1v-.42l4.59-1.56v13.32l2.07.6v.66h-6.72ZM183,133.25a1.92,1.92,0,1,1,1.95,1.92A2,2,0,0,1,183,133.25Z"/><path className="cls-2" d="M189.72,152.72l1.83-.6V141.8l-1.89-1v-.39L194,138.8h.15l.09,3.87h.12l.36-.63c1.5-2.73,2.31-3.3,3.51-3.3a1.5,1.5,0,0,1,1.62,1.5,2,2,0,0,1-1.11,1.8l-2-.78a4.82,4.82,0,0,0-2.31,2.76v8.1l2.31.6v.66h-7Z"/><path className="cls-2" d="M200.46,159.83l1.89-.6V141.8l-1.86-1v-.39l4.41-1.59h.15v2.76h.06a5.7,5.7,0,0,1,4.68-2.76c2.73,0,5.55,1.95,5.55,6.72a8.45,8.45,0,0,1-8.25,8.22,8.82,8.82,0,0,1-1.92-.24v5.7l3.06.63v.69h-7.77Zm4.71-17.49v9.27a4.41,4.41,0,0,0,2.91,1c2.4,0,4.41-2,4.41-6.15,0-3.39-1.92-5.79-4.29-5.79A3.77,3.77,0,0,0,205.17,142.34Z"/><path className="cls-2" d="M217.53,146.63c0-4.32,3.24-7.89,7.23-7.89,4.32,0,7.2,2.82,7.2,7.17s-3.18,8-7.2,8A7,7,0,0,1,217.53,146.63Zm3.09-1.29c0,3.54,1.47,7.5,4.59,7.5,2.25,0,3.66-2.43,3.66-5.64,0-4.68-2-7.47-4.59-7.47S220.62,142.4,220.62,145.34Z"/><path className="cls-2" d="M233.55,152.72l1.83-.6V141.8l-1.89-1v-.39l4.29-1.59h.15l.09,3.87h.12l.36-.63c1.5-2.73,2.31-3.3,3.51-3.3a1.5,1.5,0,0,1,1.62,1.5,2,2,0,0,1-1.11,1.8l-2-.78A4.82,4.82,0,0,0,238.2,144v8.1l2.31.6v.66h-7Z"/><path className="cls-2" d="M246.45,150.2l.09-9.54h-2.22v-.9l2.22-.66,2-3.75h.69v3.84h4.14v1.56h-4.14v9.45c.21,1.5,1,1.92,2.31,1.92a5.66,5.66,0,0,0,2.07-.42l.18.57a7,7,0,0,1-4.14,1.44C247.2,153.71,246.42,152.36,246.45,150.2Z"/><path className="cls-2" d="M267.51,158.78a19.43,19.43,0,0,1-5.82-13.59,19.78,19.78,0,0,1,6-13.77h1.11c-3.06,4.2-4.74,8-4.74,13.77a21.59,21.59,0,0,0,4.62,13.59Z"/><path className="cls-2" d="M269.52,147.26h.75l1.83,4.56a5.65,5.65,0,0,0,3.57,1.14,3.78,3.78,0,0,0,4.08-3.9c0-1.59-.66-2.88-3.6-4.26l-1.47-.69c-3.42-1.62-4.65-2.91-4.65-5.55,0-3.21,2.91-5.7,6.9-5.7a9.36,9.36,0,0,1,4.62,1.38l.18,4.59H281l-1.71-3.93a3.84,3.84,0,0,0-2.7-1.08,3.35,3.35,0,0,0-3.63,3.36c0,2,.87,2.82,3.48,4.08l1.44.69c4,1.89,4.95,3.45,4.95,5.67,0,3.84-3.87,6.33-7.47,6.33a11.36,11.36,0,0,1-5.58-1.56Z"/><path className="cls-2" d="M284.82,152.69l2.31-.57V134.78l-2.31-.63v-.69h7.95v.69l-2.46.63v17.34l2.46.57v.69h-7.95Zm5.88-9.39v-.12l8.1-8.4-2.73-.63v-.69h6.48v.69l-2.25.63-7,7,8.54,10.47,1.87.45v.69h-5Z"/><path className="cls-2" d="M304.23,144c0-5.91,5.55-11,11.94-11a11.78,11.78,0,0,1,6.09,1.59l0,5h-.72l-1.77-4.11a6.51,6.51,0,0,0-4-1.32c-4.74,0-7.86,3.75-7.86,9.33,0,6.63,3.89,9.45,8,9.45a8.53,8.53,0,0,0,3.42-.63V146.3l-3.39-.48V145h7.89v.75l-1.38.36v5.85l-1,.48a14.45,14.45,0,0,1-6.63,1.68C307.56,154.1,304.23,149.09,304.23,144Z"/><path className="cls-2" d="M325.92,131.42A19.43,19.43,0,0,1,331.74,145a19.75,19.75,0,0,1-5.94,13.77h-1.14c3.09-4.2,4.74-8,4.74-13.77a21.41,21.41,0,0,0-4.62-13.59Z"/><path className="cls-1" d="M326,171.8a8.61,8.61,0,0,0-4.51,1.39,6.92,6.92,0,0,0-4.52-1.39,7.64,7.64,0,0,0-2.51.43l0-.43h-3.53l-1.71.63v-.24h-9.48v-9.41l-10.56,3.68v4.34l1.77,1v3.41a10.72,10.72,0,0,0-8.85-4.3,11.22,11.22,0,0,0-10.35,7.83v-7.54l-5.15-.2-10.79,13.08h-1.88a9.7,9.7,0,0,0,2.76-6.27c0-4-3.08-6.93-7.32-6.93a7.82,7.82,0,0,0-3.75.95l2.56-5.91-6.46-3-8.94,20.72V170.91a4.84,4.84,0,0,0,.3-1.66,4.92,4.92,0,1,0-7.84,3.92l-1.92.65a6.65,6.65,0,0,0-5.06-2,8.69,8.69,0,0,0-4.51,1.38,7,7,0,0,0-4.52-1.38,7.64,7.64,0,0,0-2.51.43l0-.43H203.1l-5,1.87V171.2h-3.42l-9,1.8v6.27h3.51v6.21l-.73.1a5,5,0,0,0-4.55-3,4.72,4.72,0,0,0-1.76.35,15.4,15.4,0,0,0,.11-1.64c0-5.94-4.25-10.41-9.87-10.41a10.11,10.11,0,0,0-9.75,7.86v-7.6l-5.15-.2-11.38,13.8V171.2h-3.42l-9,1.8v6.27h3.51v6.21l-3.24.45v6.45h15.18v-.57h4.71v6.42h8.72l.36,1,2.69-.71c6.91-1.83,11.3-5.09,13.83-8.71a4.88,4.88,0,0,0,6.47,2.36v.18h43l-1.87,4.33,6.45,2.93,8.59-19.83,3.6,2.22,1.64-2.27a4,4,0,0,1,.46-.57c-.17,1-2.14,3.16-4.22,5.43l-.68.74-2,2.13v4.89h17.37v-.57h4.68v6.42h8.76v-6.42h4.14v-.72a11.24,11.24,0,0,0,6.36,1.86,10.61,10.61,0,0,0,6.87-2.6v2h12.51v-.49a6.1,6.1,0,0,0,3.18.85,5.75,5.75,0,0,0,2-.36h28v-5.79l-1.89-.63v-6.15C332.85,172.84,328.52,171.8,326,171.8Zm-163.18,12h-.14v-.64C162.68,183.41,162.71,183.62,162.77,183.83Zm-.14,8.61v-.63h1.48l-.65.29Zm4.14-2v-1.54a8.26,8.26,0,0,0,1.38.64C167.72,189.84,167.25,190.14,166.77,190.43Zm6.24-7.88-.15,0c-.81,0-1.41-1.2-1.41-2.79,0-1.3.35-1.83.43-1.88H172c.28,0,1.11.94,1.11,3.84A6,6,0,0,1,173,182.55Zm25.23-3v5.93l-.18,0v-6Zm9,6.36-.07,0-.14-.05v-6l.2-.08a.25.25,0,0,0,0,.08Zm9,0-.13,0-.08,0v-6l.2-.09V186Zm66.33-.06c-1.52,0-2.22-2.9-2.22-4.86S281,178,281.64,178c.84,0,2.07,1.85,2.07,4.74C283.71,184.46,283.22,185.9,282.63,185.9Zm22.9-6.56.47.25v4.47l-2.53-2.9ZM315,186l-.07,0-.14-.05v-6l.2-.08a.25.25,0,0,0,0,.08Zm9,0-.13,0-.08,0v-6l.2-.09a.19.19,0,0,0,0,.08Z"/><path className="cls-2" d="M143.1,188.06l3.06.48v.84H137v-.84l3.24-.45V176.27h-3.51v-.81L143,174.2h.12Z"/><path className="cls-2" d="M156.87,188.81h-9.33v-1.05l11.31-13.71.78,0v12.75h4.14v2h-4.14v6.42h-2.76Zm0-2v-8.94l-7.29,8.94Z"/><path className="cls-2" d="M175.38,185.39a6.33,6.33,0,0,1-4,1.68,5.82,5.82,0,0,1-6-6.12,7.12,7.12,0,0,1,7-7c3.63,0,6.87,2.73,6.87,7.41,0,7.44-7,12.36-14.37,14.31l-.27-.78C169.47,192.86,173.76,189.56,175.38,185.39Zm.33-1a10.78,10.78,0,0,0,.36-2.64c0-4.77-1.92-6.84-4.11-6.84s-3.51,1.77-3.51,4.89c0,3.54,2,5.79,4.41,5.79A4.21,4.21,0,0,0,175.71,184.37Z"/><path className="cls-2" d="M181.92,187.64a2,2,0,1,1,2,2A2,2,0,0,1,181.92,187.64Z"/><path className="cls-2" d="M195.06,188.06l3.06.48v.84h-9.18v-.84l3.24-.45V176.27h-3.51v-.81l6.27-1.26h.12Z"/><path className="cls-2" d="M217.5,188.72l1.8-.6v-8.31c-.12-1.74-.81-3-2.76-3a6.07,6.07,0,0,0-3.45,1.56v9.78l1.86.63v.63h-6.51v-.66l1.83-.6v-8.31c-.12-1.74-.81-3-2.76-3a6.17,6.17,0,0,0-3.45,1.56v9.78l1.89.6v.66h-6.54v-.66l1.83-.6V177.8l-1.89-1v-.39l4.29-1.59h.15l.15,2.76H204c.6-.63,2.76-2.76,5.16-2.76,2.07,0,3.3.66,3.72,2.85h.06c.48-.51,2.76-2.85,5.25-2.85s3.9,1.23,3.9,5v8.31l1.89.63v.63H217.5Z"/><path className="cls-2" d="M225.06,188.72l1.83-.6V177.8l-1.77-1v-.42l4.59-1.56v13.32l2.07.6v.66h-6.72Zm1.11-19.47a1.92,1.92,0,1,1,2,1.92A2,2,0,0,1,226.17,169.25Z"/><path className="cls-2" d="M231,195.2l12.21-28.29,1,.48L232,195.65Z"/><path className="cls-2" d="M246.75,187.07h8.49v2.31H243.87v-.69l1.2-1.26c3.51-3.84,5.73-6.09,5.73-8.37a2.78,2.78,0,0,0-2.79-3c-1.44,0-2.28.81-3.12,2l-.63-.39c.93-2.1,2.61-3.75,5-3.75,2.73,0,4.32,1.74,4.32,3.93,0,2.52-2.25,4.65-4.74,7.14Z"/><path className="cls-2" d="M265.92,188.81h-9.33v-1.05l11.31-13.71.78,0v12.75h4.14v2h-4.14v6.42h-2.76Zm0-2v-8.94l-7.29,8.94Z"/><path className="cls-2" d="M274.17,181.94a8.19,8.19,0,0,1,7.86-8,7.67,7.67,0,0,1,8,8,8.07,8.07,0,0,1-7.8,8A7.64,7.64,0,0,1,274.17,181.94Zm3.24-.9c0,3.45,1.41,7.86,5.22,7.86,2.46,0,4.08-2.31,4.08-6.21,0-4.32-2.1-7.74-5.07-7.74C279.27,175,277.41,177.23,277.41,181Z"/><path className="cls-2" d="M293.88,170l-1.77-1v-.45l4.56-1.59v21.12l1.89.6v.66h-6.51v-.66l1.83-.6Zm7.47,17.58-4.47-5.76,5.61-5.1-2-.93v-.63h5.67v.54l-2,.81-4.92,4.35,7.2,8.25a2.92,2.92,0,0,1-1.71.6C303.57,189.74,302.64,189.29,301.35,187.61Z"/><path className="cls-2" d="M325.26,188.72l1.8-.6v-8.31c-.12-1.74-.81-3-2.76-3a6.07,6.07,0,0,0-3.45,1.56v9.78l1.86.63v.63H316.2v-.66l1.83-.6v-8.31c-.12-1.74-.81-3-2.76-3a6.17,6.17,0,0,0-3.45,1.56v9.78l1.89.6v.66h-6.54v-.66l1.83-.6V177.8l-1.89-1v-.39l4.29-1.59h.15l.15,2.76h.06c.6-.63,2.76-2.76,5.16-2.76,2.07,0,3.3.66,3.72,2.85h.06c.48-.51,2.76-2.85,5.25-2.85s3.9,1.23,3.9,5v8.31l1.89.63v.63h-6.48Z"/><path className="cls-1" d="M292.6,51.88,305.9,41l1.34,1.34,17.94,27.15L331,63.68l-3.24-12L330,49.48a4.24,4.24,0,0,0,0-6l-2.82-2.82a4.21,4.21,0,0,0-1.68-1L326,39a4.22,4.22,0,0,0,0-6l-2.82-2.82a4.17,4.17,0,0,0-1.57-1L321,26.73l4.2-4.21c7.91-7.9,9.57-13.56,9.57-16.91a7.26,7.26,0,0,0-.86-3.7l-.38-.65-.65-.38c-1.24-.75-8.07-3.83-20.61,8.71L308,13.79l-2.51-.68a4.25,4.25,0,0,0-1-1.57L301.7,8.72a4.22,4.22,0,0,0-6,0l-.6.59a4.21,4.21,0,0,0-1-1.68l-2.82-2.82a4.22,4.22,0,0,0-6,0L283.06,7l-12-3.24L265.3,9.58l27.16,17.94,1.34,1.34-10.92,13.3-14.8-4.5-6.81,6.81L275,52.72c-3,5.12-3,6.31-3,6.93V60l.45,2.25,2,.39c.88.18,2,.39,7.61-2.94l8.25,13.75,6.81-6.81Z"/><path className="cls-3" d="M309.58,40.4l16.08,24.34,1.95-2-3.24-12,3.46-3.46a1.23,1.23,0,0,0,0-1.74L325,42.79a1.23,1.23,0,0,0-1.74,0l-.84.84-1.11-4.11,2.6-2.6a1.23,1.23,0,0,0,0-1.74l-2.83-2.82a1.21,1.21,0,0,0-1.71,0l-1.76-6.5,5.43-5.44c11.52-11.52,8.26-16.95,8.26-16.95s-5.43-3.26-16.95,8.26l-5.44,5.43-6.5-1.76a1.21,1.21,0,0,0,0-1.71l-2.82-2.83a1.23,1.23,0,0,0-1.74,0l-2.6,2.6-4.11-1.11.84-.84a1.23,1.23,0,0,0,0-1.74l-2.82-2.82a1.23,1.23,0,0,0-1.74,0L284,10.39,272,7.15,270,9.1l24.34,16.08,3.48,3.48-13.91,17-15-4.56-2.82,2.83,13,7.82s-4.35,6.95-4.13,8c1.09.22,8-4.13,8-4.13l7.82,13,2.83-2.82-4.56-15,17-13.91Z"/></g></g></svg>